# xmcd
#
# Track frame offsets: 
#        150
#        19954
#        38180
#        54926
#
# Disc length: 938 seconds
#
# Revision: 0
# Processed by: cddbd v1.5.2PL0 Copyright (c) Steve Scherf et al.
# Submitted via: ExactAudioCopy v0.99pb4
#
DISCID=2a03a804
DTITLE=Huutolaiset - Huuto
DYEAR=2004
DGENRE=Alt. Rock
TTITLE0=Yksinäinen kaikista
TTITLE1=Musta aurinko
TTITLE2=Nimellinen
TTITLE3=Myrkkyä
EXTD=
EXTT0=
EXTT1=
EXTT2=
EXTT3=
PLAYORDER=
